<!-- Created with Inkscape (http://www.inkscape.org/) -->
<svg width="200" height="200" version="1.1" viewBox="0 0 52.917 52.917" xmlns="http://www.w3.org/2000/svg">
 <g fill="none" stroke="#000" stroke-linecap="round" stroke-width="3.175">
  <path d="m12.226 25.844h29.172"/>
  <path d="m16.535 15.492 20.553 20.702 2.738 2.6482s1.4683 1.6189 2.4584 1.9667c1.2923 0.45396 2.8609 0.56758 4.1091 0.0037 1.2197-0.55099 2.0647-1.8123 2.6515-3.0152 0.81345-1.6676 0.87997-3.6207 1.0314-5.4699 0.20234-2.4713 0.18493-4.9828-0.17094-7.4367-0.25734-1.7745-0.49969-3.646-1.4091-5.1913-0.84214-1.4309-2.0722-2.7563-3.5691-3.4745-1.0687-0.51276-3.5292-0.43542-3.5292-0.43542h-29.172"/>
  <path d="m16.535 36.196 20.553-20.702 2.738-2.6482s1.4683-1.6189 2.4584-1.9667c1.2923-0.45396 2.8609-0.56758 4.1091-0.0037 1.2197 0.55099 2.0647 1.8123 2.6515 3.0152 0.81345 1.6676 0.87997 3.6207 1.0314 5.4699 0.20233 2.4713 0.18493 4.9828-0.17094 7.4367-0.25734 1.7745-0.49969 3.646-1.4091 5.1913-0.84214 1.4309-2.0722 2.7563-3.5691 3.4745-1.0687 0.51276-3.5292 0.43542-3.5292 0.43542h-29.172"/>
 </g>
</svg>
