<!-- Created with Inkscape (http://www.inkscape.org/) -->
<svg width="200" height="200" version="1.1" viewBox="0 0 52.917 52.917" xmlns="http://www.w3.org/2000/svg">
 <g transform="translate(0 -244.08)" fill="none" stroke="#000" stroke-linecap="round">
  <path d="m12.282 270.54h29.075" stroke-width="3.2016"/>
  <path d="m12.254 280.88h27.771s1.9684 0.036 3.1002-0.37492c2.3496-0.85305 4.3248-3.1338 5.1535-5.5458 1.9215-5.5927 1.4836-12.622-1.438-17.735-0.62813-1.0993-1.8793-1.8461-3.0869-2.1303-1.0381-0.2443-2.1898 0.0173-3.1629 0.46253-0.7364 0.33688-1.8565 1.5942-1.8565 1.5942l-24.474 26.701" stroke-width="3.175"/>
  <path d="m12.226 259.87h27.771s2.0352-0.036 3.1002 0.37492c2.3321 0.89981 4.3248 3.1338 5.1535 5.5458 1.9215 5.5927 1.4836 12.622-1.438 17.735-0.62813 1.0993-1.8793 1.8461-3.0869 2.1303-1.0381 0.2443-2.1898-0.0173-3.1629-0.46253-0.7364-0.33688-1.8565-1.5942-1.8565-1.5942l-24.474-26.701" stroke-width="3.175"/>
 </g>
</svg>
